<?xml version="1.0" standalone="no"?>
<!DOCTYPE svg PUBLIC "-//W3C//DTD SVG 20010904//EN"
 "http://www.w3.org/TR/2001/REC-SVG-20010904/DTD/svg10.dtd">
<svg version="1.0" xmlns="http://www.w3.org/2000/svg"
 width="225.000000pt" height="225.000000pt" viewBox="0 0 225.000000 225.000000"
 preserveAspectRatio="xMidYMid meet">

<g transform="translate(0.000000,225.000000) scale(0.100000,-0.100000)"
fill="#384B70" stroke="none">
<path d="M982 2045 c-173 -38 -342 -172 -420 -335 -45 -94 -60 -144 -41 -138
6 2 21 31 34 65 33 92 72 151 145 224 79 78 197 142 299 163 36 7 67 18 69 24
5 15 -6 14 -86 -3z"/>
<path d="M1180 2045 c0 -10 10 -15 28 -15 78 0 234 -71 318 -145 66 -57 139
-164 168 -246 13 -35 29 -65 35 -67 18 -6 4 43 -41 138 -69 144 -211 268 -363
318 -90 29 -145 36 -145 17z"/>
<path d="M474 1953 c-160 -134 -275 -317 -331 -531 -22 -84 -26 -117 -25 -242
0 -82 6 -170 14 -202 l13 -58 136 90 135 91 -22 67 c-78 232 -42 485 100 697
37 55 46 76 44 104 l-3 34 -61 -50z"/>
<path d="M1710 1964 c0 -25 10 -50 34 -83 144 -198 189 -484 112 -714 l-23
-69 129 -84 c71 -46 133 -84 137 -84 18 0 36 146 34 270 -2 198 -61 384 -173
551 -44 66 -190 217 -228 238 -21 11 -22 10 -22 -25z"/>
<path d="M1010 1965 c-239 -54 -410 -267 -410 -512 0 -215 130 -408 330 -490
44 -18 56 -28 61 -50 4 -15 14 -45 23 -65 14 -32 16 -83 16 -338 l0 -300 95 0
95 0 0 305 c0 286 1 308 20 345 11 22 20 49 20 60 0 11 8 23 18 27 264 91 417
352 361 615 -60 282 -348 466 -629 403z"/>
<path d="M514 1273 c20 -116 143 -290 261 -367 77 -51 83 -53 77 -17 -3 23
-15 37 -46 55 -96 56 -223 230 -242 332 -5 28 -11 34 -31 34 -24 0 -25 -2 -19
-37z"/>
<path d="M1686 1276 c-19 -102 -134 -261 -236 -327 -36 -23 -49 -39 -52 -60
-6 -36 1 -34 77 17 118 78 239 248 260 367 7 35 6 37 -18 37 -20 0 -26 -6 -31
-34z"/>
<path d="M303 929 c-151 -102 -144 -81 -77 -214 94 -186 257 -346 451 -444 50
-25 202 -81 219 -81 2 0 4 62 4 138 -1 200 -11 225 -129 314 -64 48 -97 81
-112 111 -12 23 -50 73 -85 110 -35 38 -76 88 -91 113 -15 24 -32 44 -38 43
-5 0 -70 -40 -142 -90z"/>
<path d="M1767 977 c-14 -24 -54 -74 -90 -112 -35 -39 -74 -89 -86 -112 -15
-31 -48 -63 -114 -113 -87 -65 -94 -73 -110 -125 -12 -41 -17 -91 -17 -189 l0
-134 48 13 c288 79 558 317 661 583 l21 53 -137 89 c-75 50 -140 90 -144 90
-4 0 -18 -19 -32 -43z"/>
</g>
</svg>
